<svg width="314.6000061035156" height="112.42616889052483" viewBox="0 0 300 107.2086777266612" class="css-1j8o68f">
    <defs id="SvgjsDefs6729">
        <linearGradient id="SvgjsLinearGradient6734">
            <stop id="SvgjsStop6735" stop-color="#ef4136" offset="0"></stop>
            <stop id="SvgjsStop6736" stop-color="#fbb040" offset="1"></stop>
        </linearGradient>
        <linearGradient id="SvgjsLinearGradient6737">
            <stop id="SvgjsStop6738" stop-color="#ef4136" offset="0"></stop>
            <stop id="SvgjsStop6739" stop-color="#fbb040" offset="1"></stop>
        </linearGradient>
    </defs>
    <g id="SvgjsG6730" featurekey="symbolFeature-0"
        transform="matrix(0.054694649692185696,0,0,0.054694649692185696,99.9931095474011,0)"
        fill="url(#SvgjsLinearGradient6734)">
        <defs xmlns="http://www.w3.org/2000/svg"></defs>
        <g xmlns="http://www.w3.org/2000/svg">
            <path class="fil0"
                d="M564 0l571 0 209 0c32,0 54,26 49,58l-17 101 173 0c28,0 57,10 73,30l152 183c18,22 24,56 19,87l-35 207 42 0c19,0 31,16 28,34l-13 77c-3,18 -21,34 -40,34l-225 0c16,-94 -47,-171 -141,-171 -95,0 -184,77 -200,171l-353 0c16,-94 -48,-171 -142,-171 -94,0 -183,77 -199,171l-171 0c-18,0 -31,-16 -28,-34l10 -56 64 0c25,0 49,-21 53,-45l0 0c4,-25 -12,-45 -37,-45l-8 0 -360 0c-25,0 -42,-21 -37,-45l0 0c4,-25 28,-45 52,-45l361 0 15 -91 630 0c24,0 48,-20 52,-45l0 0c5,-24 -12,-45 -37,-45l-629 0 -270 0c-25,0 -41,-20 -37,-45l0 0c4,-24 28,-45 52,-45l270 0 15 -90 630 0c24,0 48,-20 52,-45l0 0c5,-25 -12,-45 -37,-45l-629 0 -182 0c-25,0 -42,-20 -38,-45l0 0c5,-25 28,-45 53,-45l240 0zm769 413l34 -211 170 0c19,0 39,7 51,21l117 142 -41 48 -331 0zm66 285c62,0 104,50 94,113 -11,62 -70,113 -133,113 -62,0 -104,-51 -94,-113 11,-63 70,-113 133,-113zm-695 0c63,0 105,50 94,113 -10,62 -70,113 -132,113 -63,0 -105,-51 -94,-113 10,-63 70,-113 132,-113z"
                style="fill: url(#SvgjsLinearGradient6734);"></path>
        </g>
    </g>
    <g id="SvgjsG6731" featurekey="nameFeature-0"
        transform="matrix(1.2913222733388137,0,0,1.2913222733388137,-0.9814052232977111,55.0392559133717)"
        fill="url(#SvgjsLinearGradient6737)">
        <path
            d="M11.76 40.4 c-6.4 0 -10.32 -2.84 -11 -8.6 l2.12 0 c0.52 4.32 3.72 6.68 8.88 6.64 c5.12 0 7.84 -2.24 7.84 -5.88 c0 -4.08 -4.08 -4.76 -8.32 -5.56 c-4.56 -0.84 -9.32 -1.8 -9.32 -7.36 c0 -4.36 3.6 -7.28 9.08 -7.28 c5.84 0 9.56 3.08 9.88 7.88 l-2.08 0 c-0.32 -3.08 -2.8 -5.92 -7.92 -5.92 c-4.4 0 -6.92 2.24 -6.92 5.36 c0 3.92 3.88 4.6 8 5.36 c4.72 0.88 9.72 1.8 9.72 7.6 c0 4.28 -3.12 7.76 -9.96 7.76 z M26.64 20 l0 2.92 c0.96 -1.64 3 -3.24 6.28 -3.24 c3.08 0 5.44 1.52 6.56 4.04 c1.08 -2.04 3.28 -4.04 7 -4.04 c4.4 0 7.28 3.04 7.28 7.76 l0 12.56 l-1.96 0 l0 -12.4 c0 -3.8 -2.08 -6.04 -5.52 -6.04 c-3.6 0 -6.08 2.32 -6.08 6.28 l0 12.16 l-1.96 0 l0 -12.4 c0 -3.8 -2.08 -6.04 -5.52 -6.04 c-3.68 0 -6.08 2.44 -6.08 6.56 l0 11.88 l-1.96 0 l0 -20 l1.96 0 z M66.68 19.68 c5.8 0 10.28 4.48 10.28 10.28 c0 5.84 -4.48 10.32 -10.28 10.32 c-5.84 0 -10.32 -4.48 -10.32 -10.32 c0 -5.8 4.48 -10.28 10.32 -10.28 z M66.68 21.56 c-4.8 0 -8.36 3.68 -8.36 8.44 c0 4.72 3.56 8.4 8.36 8.4 c4.76 0 8.32 -3.68 8.32 -8.4 c0 -4.76 -3.56 -8.44 -8.32 -8.44 z M89.28 19.68 c5.8 0 10.28 4.48 10.28 10.28 c0 5.84 -4.48 10.32 -10.28 10.32 c-5.84 0 -10.32 -4.48 -10.32 -10.32 c0 -5.8 4.48 -10.28 10.32 -10.28 z M89.28 21.56 c-4.8 0 -8.36 3.68 -8.36 8.44 c0 4.72 3.56 8.4 8.36 8.4 c4.76 0 8.32 -3.68 8.32 -8.4 c0 -4.76 -3.56 -8.44 -8.32 -8.44 z M106.28 20 l5.56 0 l0 1.76 l-5.56 0 l0 12.16 c0 3.36 2.2 4.2 4 4.2 l1.52 0 l0 1.88 l-1.56 0 c-2.72 0 -5.88 -1.52 -5.88 -6.08 l0 -12.16 l-3 0 l0 -1.76 l3 0 l0 -5.8 l1.92 0 l0 5.8 z M116.4 12.600000000000001 l0 10.44 c1.16 -1.8 3.2 -3.36 6.68 -3.36 c4.68 0 7.76 3.16 7.76 8.08 l0 12.24 l-1.96 0 l0 -12 c0 -4.04 -2.24 -6.44 -6 -6.44 c-3.92 0 -6.48 2.64 -6.48 7 l0 11.44 l-1.96 0 l0 -27.4 l1.96 0 z M154.68 40 l-10.24 -23.16 l0 23.16 l-2 0 l0 -27.4 l2.4 0 l10.48 24.16 l10.44 -24.16 l2.4 0 l0 27.4 l-2.04 0 l0 -23.24 l-10.24 23.24 l-1.2 0 z M181.48 19.68 c5.8 0 10.28 4.48 10.28 10.28 c0 5.84 -4.48 10.32 -10.28 10.32 c-5.84 0 -10.32 -4.48 -10.32 -10.32 c0 -5.8 4.48 -10.28 10.32 -10.28 z M181.48 21.56 c-4.8 0 -8.36 3.68 -8.36 8.44 c0 4.72 3.56 8.4 8.36 8.4 c4.76 0 8.32 -3.68 8.32 -8.4 c0 -4.76 -3.56 -8.44 -8.32 -8.44 z M203.48 40 l-2.48 0 l-7.64 -20 l2.24 0 l6.72 17.8 l6.68 -17.8 l2.12 0 z M232.36 35.28 c-1.84 3.04 -4.76 5 -9.24 5 c-6.04 0 -10.4 -4.48 -10.4 -10.32 c0 -5.8 4.4 -10.28 10.24 -10.28 c5.96 0 10.12 4.56 10.12 9.68 c0 0.64 -0.04 1.08 -0.08 1.32 l-18.2 0 c0.32 4.88 4 7.68 8.32 7.68 c3.96 0 6.16 -1.56 7.72 -4.12 z M222.96 21.56 c-4.08 0 -7.68 2.84 -8.16 7.32 l16.24 0 c-0.4 -4.52 -3.96 -7.32 -8.08 -7.32 z">
        </path>
    </g>
</svg>